# Blender v2.93.4 OBJ File: 'glast.blend'
# www.blender.org
mtllib glast.mtl
o Icosphere
v 0.000000 -0.629271 0.000000
v 1.283494 -0.045495 0.795496
v -0.414582 0.138686 1.275974
v -1.341639 0.138693 0.000000
v -0.414582 0.138686 -1.275974
v 1.283494 -0.045495 -0.795495
v 0.414582 1.480346 1.275974
v -1.085411 1.480345 0.788588
v -1.085411 1.480345 -0.788588
v 0.414582 1.480346 -1.275974
v 1.283494 1.875000 -0.000000
v 0.000000 2.309516 0.000000
v -0.243683 -0.466465 0.749993
v 0.637984 -0.466465 0.463517
v 0.394303 0.020910 1.213518
v 1.283494 -0.375000 0.000000
v 0.637984 -0.466465 -0.463517
v -0.788595 -0.466461 0.000000
v -1.032284 0.020912 0.749995
v -0.243683 -0.466465 -0.749993
v -1.032284 0.020912 -0.749995
v 0.394303 0.020910 -1.213518
v 1.426587 0.809516 0.463519
v 1.426587 0.809516 -0.463519
v 0.000000 0.809516 1.500000
v 1.283494 0.750000 1.125000
v -1.426587 0.809516 0.463519
v -0.881678 0.809516 1.213525
v -0.881678 0.809516 -1.213525
v -1.426587 0.809516 -0.463519
v 1.283494 0.750000 -1.125000
v 0.000000 0.809516 -1.500000
v 1.283494 1.545495 0.795495
v -0.394303 1.598123 1.213518
v -1.275972 1.598120 0.000000
v -0.394303 1.598123 -1.213518
v 1.283494 1.545495 -0.795495
v 0.243683 2.085498 0.749993
v 0.788595 2.085494 0.000000
v -0.637984 2.085498 0.463517
v -0.637984 2.085498 -0.463517
v 0.243683 2.085498 -0.749993
v 1.500000 -0.500000 0.000000
v 1.716506 -0.375000 0.000000
v 1.716506 -0.125000 0.000000
v 1.500000 0.000000 0.000000
v 1.283494 -0.125000 0.000000
v 1.500000 -0.133883 -0.883884
v 1.716506 -0.045495 -0.795495
v 1.716506 0.131282 -0.618719
v 1.500000 0.219670 -0.530330
v 1.283494 0.131282 -0.618719
v 1.500000 0.750000 -1.250000
v 1.716506 0.750000 -1.125000
v 1.716506 0.750000 -0.875000
v 1.500000 0.750000 -0.750000
v 1.283494 0.750000 -0.875000
v 1.500000 1.633884 -0.883883
v 1.716506 1.545495 -0.795495
v 1.716506 1.368719 -0.618718
v 1.500000 1.280330 -0.530330
v 1.283494 1.368719 -0.618718
v 1.500000 2.000000 -0.000000
v 1.716506 1.875000 -0.000000
v 1.716506 1.625000 -0.000000
v 1.500000 1.500000 -0.000000
v 1.283494 1.625000 -0.000000
v 1.500000 1.633884 0.883883
v 1.716506 1.545495 0.795495
v 1.716506 1.368719 0.618718
v 1.500000 1.280330 0.530330
v 1.283494 1.368719 0.618718
v 1.500000 0.750000 1.250000
v 1.716506 0.750000 1.125000
v 1.716506 0.750000 0.875000
v 1.500000 0.750000 0.750000
v 1.283494 0.750000 0.875000
v 1.500000 -0.133883 0.883884
v 1.716506 -0.045495 0.795496
v 1.716506 0.131282 0.618719
v 1.500000 0.219670 0.530330
v 1.283494 0.131282 0.618719
v -1.384113 0.474105 0.231759
v -1.384113 0.474105 -0.231759
v -1.426587 0.809516 0.000000
v -1.903955 0.421467 -0.231759
v -1.784616 0.737795 -0.000000
v -1.903955 0.421467 0.231759
v -2.314448 0.603130 -0.231759
v -2.022733 0.774031 0.000000
v -2.314448 0.603129 0.231760
v -2.584301 1.063746 -0.231759
v -2.292586 1.234648 0.000000
v -2.584301 1.063746 0.231760
v 1.155094 0.499298 -1.458252
v 0.912052 0.499298 -1.215210
v 0.669010 0.499298 -1.458252
v 0.912052 0.499298 -1.701294
v 0.799167 1.358581 -1.458252
v 0.627311 1.186725 -1.215210
v 0.455454 1.014868 -1.458252
v 0.627311 1.186725 -1.701294
v -0.060116 1.714508 -1.458252
v -0.060116 1.471466 -1.215210
v -0.060116 1.228424 -1.458252
v -0.060116 1.471466 -1.701294
v -0.919400 1.358581 -1.458252
v -0.747543 1.186724 -1.215210
v -0.575686 1.014868 -1.458252
v -0.747543 1.186724 -1.701294
v -1.275326 0.499298 -1.458252
v -1.032284 0.499298 -1.215210
v -0.789242 0.499298 -1.458252
v -1.032284 0.499298 -1.701294
v -0.919400 -0.359985 -1.458252
v -0.747543 -0.188129 -1.215210
v -0.575686 -0.016272 -1.458252
v -0.747543 -0.188129 -1.701294
v -0.060116 -0.715912 -1.458252
v -0.060116 -0.472870 -1.215210
v -0.060116 -0.229828 -1.458252
v -0.060116 -0.472870 -1.701294
v 0.799167 -0.359986 -1.458252
v 0.627310 -0.188129 -1.215210
v 0.455454 -0.016272 -1.458252
v 0.627310 -0.188129 -1.701294
v 1.155094 0.499298 1.458252
v 0.912052 0.499298 1.701294
v 0.669010 0.499298 1.458252
v 0.912052 0.499298 1.215210
v 0.799167 1.358581 1.458252
v 0.627311 1.186725 1.701294
v 0.455454 1.014868 1.458252
v 0.627311 1.186725 1.215210
v -0.060116 1.714508 1.458252
v -0.060116 1.471466 1.701294
v -0.060116 1.228424 1.458252
v -0.060116 1.471466 1.215210
v -0.919400 1.358581 1.458252
v -0.747543 1.186724 1.701294
v -0.575686 1.014868 1.458252
v -0.747543 1.186724 1.215210
v -1.275326 0.499298 1.458252
v -1.032284 0.499298 1.701294
v -0.789242 0.499298 1.458252
v -1.032284 0.499298 1.215210
v -0.919400 -0.359985 1.458252
v -0.747543 -0.188129 1.701294
v -0.575686 -0.016272 1.458252
v -0.747543 -0.188129 1.215210
v -0.060116 -0.715912 1.458252
v -0.060116 -0.472870 1.701294
v -0.060116 -0.229828 1.458252
v -0.060116 -0.472870 1.215210
v 0.799167 -0.359986 1.458252
v 0.627310 -0.188129 1.701294
v 0.455454 -0.016272 1.458252
v 0.627310 -0.188129 1.215210
vn -0.0000 0.0000 -1.0000
vn 0.6786 0.2811 0.6786
vn -0.6786 -0.2811 0.6786
vn -0.6786 -0.2811 -0.6786
vn 0.6786 0.2811 -0.6786
vn 0.2811 0.6786 0.6786
vn -0.2811 -0.6786 0.6786
vn -0.2811 -0.6786 -0.6786
vn 0.2811 0.6786 -0.6786
vn -0.2811 0.6786 0.6786
vn 0.2811 -0.6786 0.6786
vn 0.2811 -0.6786 -0.6786
vn -0.2811 0.6786 -0.6786
vn -0.6786 0.2811 0.6786
vn 0.6786 -0.2811 0.6786
vn 0.6786 -0.2811 -0.6786
vn -0.6786 0.2811 -0.6786
vn -1.0000 0.0000 0.0000
vn -0.5055 0.8628 0.0000
vn -0.0827 0.5840 0.8075
vn 0.1962 0.5839 0.7878
vn -0.0827 0.5840 -0.8075
vn 0.4879 0.2858 0.8248
vn 0.1962 0.5839 -0.7878
vn 0.4879 0.2858 -0.8248
vn -0.8628 -0.5055 -0.0000
vn -0.4047 -0.9145 -0.0000
vn 0.1007 -0.9949 0.0000
vn 0.0764 -0.9689 0.2352
vn 0.3759 -0.8561 0.3546
vn -0.2000 -0.9689 0.1453
vn -0.2000 -0.9689 -0.1453
vn 0.0764 -0.9689 -0.2352
vn 0.9880 -0.1424 0.0590
vn 0.0247 -0.3304 0.9435
vn -0.8897 -0.3304 0.3151
vn -0.5746 -0.3304 -0.7488
vn 0.3760 -0.3546 -0.8561
vn 0.9755 -0.0843 0.2034
vn -0.3066 -0.1256 0.9435
vn -0.3066 -0.1256 -0.9435
vn 0.9755 -0.0843 -0.2034
vn 0.3194 0.6714 0.6687
vn -0.4713 0.6617 0.5831
vn -0.7002 0.6617 -0.2680
vn 0.0385 0.6617 -0.7488
vn 0.3657 0.8599 -0.3562
vn 0.2680 0.9435 -0.1947
vn 0.4274 0.8491 -0.3105
vn 0.3194 0.6714 -0.6687
vn -0.1024 0.9435 -0.3151
vn -0.1876 0.7947 -0.5773
vn -0.4713 0.6617 -0.5831
vn -0.3313 0.9435 0.0000
vn -0.6071 0.7947 0.0000
vn -0.7002 0.6617 0.2680
vn -0.1024 0.9435 0.3151
vn -0.1876 0.7947 0.5773
vn 0.0385 0.6617 0.7488
vn 0.2680 0.9435 0.1947
vn 0.4274 0.8491 0.3105
vn 0.3657 0.8599 0.3562
vn 0.9846 0.1613 -0.0668
vn 0.9717 0.0904 -0.2183
vn 0.4343 0.3447 -0.8322
vn -0.0247 0.3304 -0.9435
vn -0.3035 0.1876 -0.9342
vn -0.5346 0.3304 -0.7779
vn -0.9050 0.3304 -0.2680
vn -0.9822 0.1876 0.0000
vn -0.9050 0.3304 0.2680
vn -0.5346 0.3304 0.7779
vn -0.3035 0.1876 0.9342
vn -0.0247 0.3304 0.9435
vn 0.4343 0.3447 0.8322
vn 0.9717 0.0904 0.2183
vn 0.9846 0.1613 0.0668
vn 0.2837 0.1414 -0.9484
vn 0.2653 -0.2093 -0.9412
vn 0.0247 -0.3304 -0.9435
vn -0.8026 0.1256 -0.5831
vn -0.7947 -0.1876 -0.5773
vn -0.8897 -0.3304 -0.3151
vn -0.8026 0.1256 0.5831
vn -0.7947 -0.1876 0.5773
vn -0.5746 -0.3304 0.7488
vn 0.2837 0.1414 0.9484
vn 0.2653 -0.2093 0.9412
vn 0.3760 -0.3546 0.8561
vn 0.9911 0.1331 0.0000
vn 0.9928 -0.1199 0.0000
vn 0.9880 -0.1424 -0.0590
vn 0.2141 -0.7858 -0.5802
vn 0.1876 -0.7947 -0.5773
vn -0.0385 -0.6617 -0.7488
vn -0.4089 -0.6617 -0.6284
vn -0.4911 -0.7947 -0.3568
vn -0.7240 -0.6617 -0.1947
vn -0.7240 -0.6617 0.1947
vn -0.4911 -0.7947 0.3568
vn -0.4089 -0.6617 0.6284
vn 0.3759 -0.8561 -0.3546
vn 0.1403 -0.9901 0.0000
vn 0.2473 -0.9689 0.0000
vn -0.0385 -0.6617 0.7488
vn 0.1876 -0.7947 0.5773
vn 0.2141 -0.7858 0.5802
vn 0.4706 -0.8152 -0.3377
vn 1.0000 0.0000 0.0000
vn 0.4706 0.8152 0.3377
vn -0.4706 0.8152 0.3377
vn -0.4706 -0.8152 -0.3377
vn 0.4706 -0.3377 -0.8152
vn 0.4706 0.3377 0.8152
vn -0.4706 0.3377 0.8152
vn -0.4706 -0.3377 -0.8152
vn 0.4706 0.3377 -0.8152
vn 0.4706 -0.3377 0.8152
vn -0.4706 -0.3377 0.8152
vn -0.4706 0.3377 -0.8152
vn 0.4706 0.8152 -0.3377
vn 0.4706 -0.8152 0.3377
vn -0.4706 -0.8152 0.3377
vn -0.4706 0.8152 -0.3377
vn -0.9921 -0.1256 0.0000
usemtl Material.002
s off
f 140//1 136//1 144//1
f 95//2 99//2 100//2 96//2
f 96//3 100//3 101//3 97//3
f 97//4 101//4 102//4 98//4
f 98//5 102//5 99//5 95//5
f 99//6 103//6 104//6 100//6
f 100//7 104//7 105//7 101//7
f 101//8 105//8 106//8 102//8
f 102//9 106//9 103//9 99//9
f 103//10 107//10 108//10 104//10
f 104//11 108//11 109//11 105//11
f 105//12 109//12 110//12 106//12
f 106//13 110//13 107//13 103//13
f 107//14 111//14 112//14 108//14
f 108//15 112//15 113//15 109//15
f 109//16 113//16 114//16 110//16
f 110//17 114//17 111//17 107//17
f 111//3 115//3 116//3 112//3
f 112//2 116//2 117//2 113//2
f 113//5 117//5 118//5 114//5
f 114//4 118//4 115//4 111//4
f 115//7 119//7 120//7 116//7
f 116//6 120//6 121//6 117//6
f 117//9 121//9 122//9 118//9
f 118//8 122//8 119//8 115//8
f 119//11 123//11 124//11 120//11
f 120//10 124//10 125//10 121//10
f 121//13 125//13 126//13 122//13
f 122//12 126//12 123//12 119//12
f 123//15 95//15 96//15 124//15
f 124//14 96//14 97//14 125//14
f 125//17 97//17 98//17 126//17
f 126//16 98//16 95//16 123//16
f 127//2 131//2 132//2 128//2
f 128//3 132//3 133//3 129//3
f 129//4 133//4 134//4 130//4
f 130//5 134//5 131//5 127//5
f 131//6 135//6 136//6 132//6
f 132//7 136//7 137//7 133//7
f 133//8 137//8 138//8 134//8
f 134//9 138//9 135//9 131//9
f 135//10 139//10 140//10 136//10
f 136//11 140//11 141//11 137//11
f 137//12 141//12 142//12 138//12
f 138//13 142//13 139//13 135//13
f 139//14 143//14 144//14 140//14
f 140//15 144//15 145//15 141//15
f 141//16 145//16 146//16 142//16
f 142//17 146//17 143//17 139//17
f 143//3 147//3 148//3 144//3
f 144//2 148//2 149//2 145//2
f 145//5 149//5 150//5 146//5
f 146//4 150//4 147//4 143//4
f 147//7 151//7 152//7 148//7
f 148//6 152//6 153//6 149//6
f 149//9 153//9 154//9 150//9
f 150//8 154//8 151//8 147//8
f 151//11 155//11 156//11 152//11
f 152//10 156//10 157//10 153//10
f 153//13 157//13 158//13 154//13
f 154//12 158//12 155//12 151//12
f 155//15 127//15 128//15 156//15
f 156//14 128//14 129//14 157//14
f 157//17 129//17 130//17 158//17
f 158//16 130//16 127//16 155//16
f 102//1 98//1 106//1
f 110//1 106//1 114//1
f 98//1 126//1 122//1
f 114//1 122//1 118//1
f 152//1 148//1 144//1
f 128//1 156//1 152//1
f 132//1 128//1 136//1
f 76//18 71//18 66//18 61//18 56//18 51//18 46//18 81//18
usemtl Material.003
f 92//19 94//19 93//19
usemtl Material.005
f 83//20 85//20 87//20 88//20
f 88//21 87//21 90//21 91//21
f 85//22 84//22 86//22 87//22
f 91//23 90//23 93//23 94//23
f 87//24 86//24 89//24 90//24
f 90//25 89//25 92//25 93//25
f 91//26 94//26 92//26 89//26
f 88//27 91//27 89//27 86//27
f 83//28 88//28 86//28 84//28
f 106//1 98//1 114//1
f 98//1 122//1 114//1
f 152//1 144//1 128//1
f 144//1 136//1 128//1
usemtl Material.006
f 1//29 14//29 13//29
f 2//30 14//30 16//30
f 1//31 13//31 18//31
f 1//32 18//32 20//32
f 1//33 20//33 17//33
f 2//34 16//34 23//34
f 3//35 15//35 25//35
f 4//36 19//36 27//36 83//36
f 5//37 21//37 29//37
f 6//38 22//38 31//38
f 2//39 23//39 26//39
f 3//40 25//40 28//40
f 5//41 29//41 32//41
f 6//42 31//42 24//42
f 7//43 33//43 38//43
f 8//44 34//44 40//44
f 9//45 35//45 41//45
f 10//46 36//46 42//46
f 11//47 37//47 39//47
f 39//48 42//48 12//48
f 39//49 37//49 42//49
f 37//50 10//50 42//50
f 42//51 41//51 12//51
f 42//52 36//52 41//52
f 36//53 9//53 41//53
f 41//54 40//54 12//54
f 41//55 35//55 40//55
f 35//56 8//56 40//56
f 40//57 38//57 12//57
f 40//58 34//58 38//58
f 34//59 7//59 38//59
f 38//60 39//60 12//60
f 38//61 33//61 39//61
f 33//62 11//62 39//62
f 24//63 37//63 11//63
f 24//64 31//64 37//64
f 31//65 10//65 37//65
f 32//66 36//66 10//66
f 32//67 29//67 36//67
f 29//68 9//68 36//68
f 30//69 35//69 9//69
f 30//70 85//70 27//70 35//70
f 27//71 8//71 35//71
f 28//72 34//72 8//72
f 28//73 25//73 34//73
f 25//74 7//74 34//74
f 26//75 33//75 7//75
f 26//76 23//76 33//76
f 23//77 11//77 33//77
f 31//78 32//78 10//78
f 31//79 22//79 32//79
f 22//80 5//80 32//80
f 29//81 30//81 9//81
f 29//82 21//82 30//82
f 21//83 4//83 84//83 30//83
f 27//84 28//84 8//84
f 27//85 19//85 28//85
f 19//86 3//86 28//86
f 25//87 26//87 7//87
f 25//88 15//88 26//88
f 15//89 2//89 26//89
f 23//90 24//90 11//90
f 23//91 16//91 24//91
f 16//92 6//92 24//92
f 17//93 22//93 6//93
f 17//94 20//94 22//94
f 20//95 5//95 22//95
f 20//96 21//96 5//96
f 20//97 18//97 21//97
f 18//98 4//98 21//98
f 18//99 19//99 4//99
f 18//100 13//100 19//100
f 13//101 3//101 19//101
f 16//102 17//102 6//102
f 16//103 14//103 17//103
f 14//104 1//104 17//104
f 13//105 15//105 3//105
f 13//106 14//106 15//106
f 14//107 2//107 15//107
f 43//108 48//108 49//108 44//108
f 44//109 49//109 50//109 45//109
f 45//110 50//110 51//110 46//110
f 46//111 51//111 52//111 47//111
f 47//18 52//18 6//18 16//18
f 16//112 6//112 48//112 43//112
f 48//113 53//113 54//113 49//113
f 49//109 54//109 55//109 50//109
f 50//114 55//114 56//114 51//114
f 51//115 56//115 57//115 52//115
f 52//18 57//18 31//18 6//18
f 6//116 31//116 53//116 48//116
f 53//117 58//117 59//117 54//117
f 54//109 59//109 60//109 55//109
f 55//118 60//118 61//118 56//118
f 56//119 61//119 62//119 57//119
f 57//18 62//18 37//18 31//18
f 31//120 37//120 58//120 53//120
f 58//121 63//121 64//121 59//121
f 59//109 64//109 65//109 60//109
f 60//122 65//122 66//122 61//122
f 61//123 66//123 67//123 62//123
f 62//18 67//18 11//18 37//18
f 37//124 11//124 63//124 58//124
f 63//110 68//110 69//110 64//110
f 64//109 69//109 70//109 65//109
f 65//108 70//108 71//108 66//108
f 66//112 71//112 72//112 67//112
f 67//18 72//18 33//18 11//18
f 11//111 33//111 68//111 63//111
f 68//114 73//114 74//114 69//114
f 69//109 74//109 75//109 70//109
f 70//113 75//113 76//113 71//113
f 71//116 76//116 77//116 72//116
f 72//18 77//18 26//18 33//18
f 33//115 26//115 73//115 68//115
f 73//118 78//118 79//118 74//118
f 74//109 79//109 80//109 75//109
f 75//117 80//117 81//117 76//117
f 76//120 81//120 82//120 77//120
f 77//18 82//18 2//18 26//18
f 26//119 2//119 78//119 73//119
f 78//122 43//122 44//122 79//122
f 79//109 44//109 45//109 80//109
f 80//121 45//121 46//121 81//121
f 81//124 46//124 47//124 82//124
f 82//18 47//18 16//18 2//18
f 2//123 16//123 43//123 78//123
f 84//125 85//125 30//125
f 83//125 27//125 85//125
f 83//125 84//125 4//125
